<svg xmlns="http://www.w3.org/2000/svg" viewBox="0 0 160 160" fill="none">
  <rect width="160" height="160" fill="#DFE8E3"/>
  <path d="M24 160v-10a40 40 0 0 1 40-40h32a40 40 0 0 1 40 40v10Z" fill="#718C7B"/>
  <path d="M68 96h24v21a12 12 0 0 1-24 0Z" fill="#D5A27E"/>
  <circle cx="46" cy="74" r="7" fill="#E6B994"/><circle cx="114" cy="74" r="7" fill="#E6B994"/>
  <path d="M47 55a33 33 0 0 1 66 0v27a33 33 0 0 1-66 0Z" fill="#E6B994"/>
  <path d="M43 66V49c0-22 17-33 39-33 11 0 19 3 25 10 13 2 17 12 17 24l-10 19-3-18c-19 1-30-5-35-13-5 13-15 20-27 20l-2 11Z" fill="#3D4039"/>
  <path d="M58 65h10M92 65h10" stroke="#3D4039" stroke-width="3" stroke-linecap="round"/>
  <circle cx="63" cy="76" r="2.5" fill="#34483F"/><circle cx="97" cy="76" r="2.5" fill="#34483F"/>
  <path d="M73 96q7 6 14 0" stroke="#865D45" stroke-width="3" stroke-linecap="round"/>
  <path d="m61 115 19 14 19-14" stroke="#B8CCBF" stroke-width="3" stroke-linecap="round" stroke-linejoin="round"/>
</svg>
